<svg xmlns="http://www.w3.org/2000/svg" viewBox="0 0 612 792"><defs><style>.a{fill:#0d96d4;}.b{fill:#00bbf2;}.c{fill:#231f20;}</style></defs><title>kcpa logo title only</title><rect class="a" x="157.19" y="337.11" width="21.93" height="21.93"/><rect class="b" x="183.5" y="336.96" width="21.93" height="21.93"/><rect class="b" x="209.82" y="336.96" width="21.93" height="21.93"/><rect class="b" x="157.34" y="309.48" width="21.93" height="21.93"/><rect class="b" x="183.64" y="309.32" width="21.93" height="21.93"/><rect class="b" x="209.97" y="309.33" width="21.93" height="21.93"/><rect class="b" x="236.14" y="309.32" width="21.93" height="49.72"/><rect class="b" x="236.14" y="364.89" width="21.93" height="49.72"/><rect class="a" x="157.34" y="364.88" width="21.93" height="21.93"/><rect class="a" x="183.64" y="364.88" width="21.93" height="21.93"/><rect class="b" x="209.97" y="364.89" width="21.93" height="21.93"/><rect class="a" x="209.82" y="392.68" width="21.93" height="21.93"/><rect class="a" x="157.34" y="392.68" width="48.09" height="21.93"/><path class="c" d="M288.13,334.53h20.1v2.11c-5.87.53-6.93,1.05-6.93,7.76v13c1.51-.15,3.24-1.36,5.42-3.47,4.22-4,9.27-9.11,12.73-13,2.26-2.56,2-3.54-1.2-4l-2.11-.23v-2.11h18.3v2.11c-5.65.68-7.61,1.05-12.65,6.25-2.26,2.18-8.14,7.91-13,12.65,5.73,6.78,14.08,16.42,18,20.56s4.82,4.74,9.49,5.27v2.11H324.27c-5.8-6.55-11.9-13.86-18.75-21.84-1.73-2.11-3-2.26-4.22-2.18v14.3c0,6.56.68,7.08,6.93,7.61v2.11h-20.1v-2.11c6.17-.53,6.77-1.05,6.77-7.61V344.4c0-6.78-.52-7.31-6.77-7.76Z"/><path class="c" d="M382.48,371.43a98.3,98.3,0,0,1-4.14,11.37,68.81,68.81,0,0,1-13.78,1.81c-18,0-27.19-12-27.19-25.15,0-15.36,11.67-26,28.54-26a76.47,76.47,0,0,1,14.23,1.73c.3,3.39.83,7.91,1.43,11.67l-2.33.53c-1.51-5.05-3.31-8.13-7.16-9.72a20.61,20.61,0,0,0-7.9-1.43c-12.43,0-19,9.19-19,21.62,0,14.53,7.53,23.87,19.73,23.87,7.68,0,11.45-3.54,15.29-11.07Z"/><path class="c" d="M409.13,334.53c5.35,0,9.64,1,12.73,3.24,2.93,2.18,5,5.72,5,10.69,0,11-9.42,15.44-16.57,15.44a13.87,13.87,0,0,1-2-.15l-5.2-1.36v11.75c0,6.33.53,6.48,7.46,7.23v2.11H389.7v-2.11c6.48-.68,6.78-1.13,6.78-7.38V344.1c0-6.71-.83-6.86-6.78-7.46v-2.11ZM403,359.76a13.7,13.7,0,0,0,5.5,1c5,0,11.29-2.56,11.29-12.05,0-8.28-5.42-11.6-11.74-11.6-2.19,0-3.77.38-4.22.91-.6.52-.83,1.43-.83,3.46Z"/><path class="c" d="M455.14,383.48v-2.11c4.89-.6,5.5-1.36,4.44-4.22s-2.48-6.7-4.07-11.44H439.25c-1.21,3.39-2.33,6.32-3.39,9.41-1.66,4.89-.6,5.5,5.57,6.25v2.11H424v-2.11c4.74-.6,5.95-1.13,8.58-7.91l15.59-39.53,2.41-.45c4.74,12.87,9.94,27.11,14.68,40.13,2.41,6.55,3.09,7.16,8.44,7.76v2.11Zm-7.53-40.14c-2.41,6.48-5,13.33-7.23,19.28h14.08Z"/></svg>