<svg xmlns="http://www.w3.org/2000/svg" viewBox="0 0 612 792"><defs><style>.a{fill:#0d96d4;}.b{fill:#00bbf2;}.c{fill:#231f20;}</style></defs><title>kcpa logo full</title><rect class="a" x="157.19" y="337.11" width="21.93" height="21.93"/><rect class="b" x="183.5" y="336.96" width="21.93" height="21.93"/><rect class="b" x="209.82" y="336.96" width="21.93" height="21.93"/><rect class="b" x="157.34" y="309.48" width="21.93" height="21.93"/><rect class="b" x="183.64" y="309.32" width="21.93" height="21.93"/><rect class="b" x="209.97" y="309.33" width="21.93" height="21.93"/><rect class="b" x="236.14" y="309.32" width="21.93" height="49.72"/><rect class="b" x="236.14" y="364.89" width="21.93" height="49.72"/><rect class="a" x="157.34" y="364.88" width="21.93" height="21.93"/><rect class="a" x="183.64" y="364.88" width="21.93" height="21.93"/><rect class="b" x="209.97" y="364.89" width="21.93" height="21.93"/><rect class="a" x="209.82" y="392.68" width="21.93" height="21.93"/><rect class="a" x="157.34" y="392.68" width="48.09" height="21.93"/><path class="c" d="M296.81,397.6a18.83,18.83,0,0,1-.88,2.4,14.77,14.77,0,0,1-2.9.38c-3.79,0-5.72-2.53-5.72-5.3,0-3.24,2.46-5.47,6-5.47a15.91,15.91,0,0,1,3,.37c.06.71.17,1.66.3,2.46l-.49.11a2.74,2.74,0,0,0-1.5-2.05,4.41,4.41,0,0,0-1.67-.3c-2.62,0-4,1.93-4,4.55,0,3.06,1.58,5,4.15,5,1.62,0,2.41-.74,3.22-2.32Z"/><path class="c" d="M304,398.8a3.57,3.57,0,0,1-2.63,1.53,3.16,3.16,0,0,1-3.11-3.41,4.09,4.09,0,0,1,1-2.77,3.25,3.25,0,0,1,2.36-1.16,2.48,2.48,0,0,1,2.42,2.46c0,.32-.06.46-.32.53s-2.34.2-4.23.26c-.05,2.13,1.25,3,2.38,3a2.69,2.69,0,0,0,1.84-.81Zm-2.72-5.2c-.73,0-1.45.68-1.67,2,.89,0,1.78,0,2.71,0,.29,0,.38-.08.38-.32A1.46,1.46,0,0,0,301.25,393.6Z"/><path class="c" d="M308.65,400.15H305v-.45c1-.09,1.09-.17,1.1-1.2v-3.3c0-1.05-.06-1.09-1-1.2v-.4a9,9,0,0,0,2.23-.65v1.74c.56-.82,1.22-1.69,2-1.69a.81.81,0,0,1,.92.76,1,1,0,0,1-.54.87.31.31,0,0,1-.41,0,1,1,0,0,0-.71-.4c-.33,0-.92.49-1.27,1.3v3c0,1,.08,1.13,1.3,1.23Z"/><path class="c" d="M314.32,400.14a1.6,1.6,0,0,1-.68.2c-1,0-1.55-.62-1.55-1.89v-4.61H311l-.07-.19.43-.46h.73v-1.33c.3-.32.76-.73,1.06-1.05l.24,0c0,.66-.05,1.58-.05,2.34h1.81a.5.5,0,0,1-.1.65h-1.71v4.06c0,1.28.51,1.52.92,1.52a2.24,2.24,0,0,0,1-.25l.15.41Z"/><path class="c" d="M316,400.15v-.44c1-.09,1.11-.17,1.11-1.25v-3.27c0-1-.05-1-1-1.2v-.38a10.4,10.4,0,0,0,2.25-.64v5.49c0,1.08.11,1.16,1.14,1.25v.45Zm1.65-8.73a.87.87,0,0,1-.84-.84.86.86,0,0,1,.86-.87.83.83,0,0,1,.81.87A.85.85,0,0,1,317.67,391.42Z"/><path class="c" d="M324.64,400.16v-.45c.94-.09,1.05-.15,1.05-1.14v-3.9c0-.71-.05-.82-.84-.82h-2.19v4.72c0,.95.11,1.05,1.11,1.14v.45h-3.49v-.45c1-.09,1.13-.17,1.13-1.14v-4.72H320.3l-.06-.19.33-.46h.84a4.17,4.17,0,0,1,1.51-3.59,3.89,3.89,0,0,1,2-.85,2.1,2.1,0,0,1,1.79.75.61.61,0,0,1,.13.39,1.13,1.13,0,0,1-.46.67.41.41,0,0,1-.57-.08,2.31,2.31,0,0,0-1.63-.91,1.05,1.05,0,0,0-1,.51,4.85,4.85,0,0,0-.56,2.63v.48H324a14.94,14.94,0,0,0,3-.21v5.58c0,1,.11,1.05,1.14,1.15v.44Z"/><path class="c" d="M334.64,398.82a3.61,3.61,0,0,1-2.63,1.53,3.16,3.16,0,0,1-3.1-3.41,4.06,4.06,0,0,1,1-2.77A3.23,3.23,0,0,1,332.3,393a2.48,2.48,0,0,1,2.43,2.46c0,.32-.07.46-.32.53s-2.35.2-4.24.26c0,2.13,1.25,3,2.38,3a2.69,2.69,0,0,0,1.84-.81Zm-2.72-5.2c-.73,0-1.44.68-1.67,2,.89,0,1.78,0,2.72-.05.28,0,.38-.07.38-.31A1.48,1.48,0,0,0,331.92,393.62Z"/><path class="c" d="M343.54,399.77a17.88,17.88,0,0,0-2.46.59v-1c-.29.17-.7.39-1,.57a3,3,0,0,1-1.26.46,3.3,3.3,0,0,1-2.94-3.49A4,4,0,0,1,340,393a3.25,3.25,0,0,1,1.08.17v-2.33c0-1-.11-1-1.23-1.14v-.41a15.43,15.43,0,0,0,2.49-.54v9.56c0,.83.11.94.7,1l.51,0Zm-2.46-5.32a2,2,0,0,0-1.66-.81c-.76,0-2.11.5-2.11,2.78,0,1.92,1.18,2.94,2.2,3a2.89,2.89,0,0,0,1.57-.57Z"/><path class="c" d="M352.28,389.87a4.55,4.55,0,0,1,2.68.68,2.71,2.71,0,0,1,1,2.26,3.28,3.28,0,0,1-3.49,3.24,2.39,2.39,0,0,1-.43,0l-1.09-.28v2.47c0,1.33.11,1.36,1.56,1.52v.45h-4.37v-.44c1.36-.14,1.43-.24,1.43-1.55v-6.3c0-1.41-.17-1.44-1.42-1.57v-.44ZM351,395.18a2.79,2.79,0,0,0,1.16.21,2.49,2.49,0,0,0-.1-5,1.38,1.38,0,0,0-.88.19c-.13.11-.18.3-.18.73Z"/><path class="c" d="M364.89,399.82a17.89,17.89,0,0,0-2.43.55v-1.22a3.9,3.9,0,0,1-2.42,1.22c-1.07,0-2-.65-2-2.38v-3.07c0-.86-.13-1-.52-1l-.45-.08v-.42a22.71,22.71,0,0,0,2.27-.28c-.05.51-.05,1.27-.05,2.31v2.16c0,1.39.73,1.79,1.44,1.79a2.48,2.48,0,0,0,1.71-.76v-3.69c0-.86-.18-1-.72-1.05l-.51-.06v-.41a21.53,21.53,0,0,0,2.49-.29v5.31c0,.8.12.91.72.94l.45,0Z"/><path class="c" d="M368.85,393.19a1.88,1.88,0,0,1,.7-.15,3.24,3.24,0,0,1,3.12,3.36,4,4,0,0,1-3.92,4,5.81,5.81,0,0,1-2.44-.58v-8.91c0-1-.05-1.07-1.06-1.15v-.42a13.1,13.1,0,0,0,2.31-.53v5Zm-1.28,5.16a1.25,1.25,0,0,0,.08.55,1.77,1.77,0,0,0,1.56.86c1.37,0,2.05-1.17,2.05-3s-1.09-2.87-2.41-2.87a3.18,3.18,0,0,0-1.28.3Z"/><path class="c" d="M373.56,400.19v-.44c1-.1,1.14-.18,1.14-1.22v-7.6c0-1-.08-1.06-1.1-1.19v-.41a11.58,11.58,0,0,0,2.35-.54v9.74c0,1,.1,1.12,1.13,1.22v.44Z"/><path class="c" d="M377.9,400.19v-.44c1-.1,1.11-.18,1.11-1.25v-3.27c0-1,0-1.05-1-1.21v-.38a10.16,10.16,0,0,0,2.25-.63v5.49c0,1.08.11,1.15,1.14,1.25v.44Zm1.65-8.73a.87.87,0,0,1-.84-.84.85.85,0,0,1,.86-.87.82.82,0,0,1,.81.87A.85.85,0,0,1,379.55,391.46Z"/><path class="c" d="M388.14,398.77a3.78,3.78,0,0,1-2.71,1.62,3.2,3.2,0,0,1-3.2-3.33,3.76,3.76,0,0,1,1.6-3.11,4.21,4.21,0,0,1,2.41-.9,2.34,2.34,0,0,1,1.48.43.49.49,0,0,1,.25.46.8.8,0,0,1-.57.71c-.08,0-.14,0-.3-.16a2.37,2.37,0,0,0-1.6-.67c-1.05,0-2,.89-2,2.54a2.58,2.58,0,0,0,2.41,2.93,2.53,2.53,0,0,0,1.93-.87Z"/><path class="c" d="M398.16,400.2v-.44c1-.13,1.16-.28.94-.89s-.53-1.41-.86-2.41h-3.42c-.26.71-.5,1.33-.72,2-.35,1-.13,1.16,1.17,1.32v.44h-3.66v-.44c1-.13,1.25-.24,1.81-1.67l3.29-8.32.5-.09c1,2.71,2.09,5.71,3.09,8.45.51,1.38.65,1.5,1.78,1.63v.45Zm-1.58-8.45-1.52,4.06h3Z"/><path class="c" d="M408.53,398.78a3.78,3.78,0,0,1-2.71,1.62,3.19,3.19,0,0,1-3.2-3.33,3.78,3.78,0,0,1,1.6-3.11,4.18,4.18,0,0,1,2.41-.9,2.33,2.33,0,0,1,1.47.43.5.5,0,0,1,.26.46.8.8,0,0,1-.58.71c-.07,0-.14,0-.3-.16a2.36,2.36,0,0,0-1.6-.66c-1,0-2,.88-2,2.53,0,2.21,1.48,2.93,2.4,2.94a2.57,2.57,0,0,0,1.94-.87Z"/><path class="c" d="M415.31,398.79a3.77,3.77,0,0,1-2.71,1.61,3.2,3.2,0,0,1-3.2-3.33A3.75,3.75,0,0,1,411,394a4.21,4.21,0,0,1,2.41-.91,2.4,2.4,0,0,1,1.48.43.51.51,0,0,1,.25.46.82.82,0,0,1-.57.72c-.08,0-.14,0-.3-.16a2.33,2.33,0,0,0-1.6-.67c-1.05,0-2,.89-2,2.54a2.58,2.58,0,0,0,2.41,2.93,2.53,2.53,0,0,0,1.93-.87Z"/><path class="c" d="M419.71,393.07a3.41,3.41,0,0,1,3.45,3.55,3.55,3.55,0,0,1-3.46,3.79,3.48,3.48,0,0,1-3.52-3.54A3.64,3.64,0,0,1,419.71,393.07Zm-.19.54c-1,0-1.84.93-1.85,2.77,0,2,.89,3.47,2.19,3.47,1,0,1.81-.71,1.81-2.88C421.67,395.11,420.91,393.61,419.52,393.61Z"/><path class="c" d="M432,399.86a19.13,19.13,0,0,0-2.43.55v-1.22a3.87,3.87,0,0,1-2.43,1.22c-1.06,0-2-.65-2-2.38V395c0-.86-.13-.95-.53-1l-.44-.08v-.42a20.11,20.11,0,0,0,2.27-.28c-.05.51-.05,1.27-.05,2.32v2.15c0,1.4.72,1.79,1.44,1.79a2.5,2.5,0,0,0,1.71-.76V395c0-.86-.19-1-.73-1l-.5-.06v-.41a21.53,21.53,0,0,0,2.49-.29v5.31c0,.8.13.91.73.94l.45,0Z"/><path class="c" d="M437.3,400.23v-.44c.92-.1,1-.21,1-1.29v-2.61c0-1.11-.39-1.86-1.44-1.86a2.78,2.78,0,0,0-1.76.82v3.71c0,1.1.09,1.13,1,1.22v.45h-3.43v-.45c1.05-.11,1.15-.17,1.15-1.22V395.3c0-1-.11-1.08-1-1.23v-.41a8.65,8.65,0,0,0,2.22-.63v1.25l1.08-.73a2.47,2.47,0,0,1,1.32-.47c1.27,0,2.06.94,2.06,2.47v3c0,1.07.09,1.12,1,1.22v.44Z"/><path class="c" d="M444.51,400.22a1.6,1.6,0,0,1-.68.2c-1,0-1.56-.62-1.55-1.88v-4.62h-1.1l-.06-.19.43-.46h.73v-1.33c.3-.32.76-.73,1.06-1.05l.24,0c0,.66-.05,1.58-.05,2.34h1.81a.5.5,0,0,1-.1.65h-1.71V398c0,1.29.5,1.52.92,1.52a2.24,2.24,0,0,0,1-.25l.15.41Z"/><path class="c" d="M451.31,400.43a1.15,1.15,0,0,1-.74-.3,1.49,1.49,0,0,1-.39-.72,5,5,0,0,1-1.9,1,2,2,0,0,1-1.93-2,1.61,1.61,0,0,1,1.3-1.58,12.08,12.08,0,0,0,2.51-1v-.32c0-1.12-.57-1.77-1.4-1.77a.92.92,0,0,0-.74.36,3.17,3.17,0,0,0-.43,1,.44.44,0,0,1-.46.37.77.77,0,0,1-.7-.7c0-.22.21-.41.53-.64a6.54,6.54,0,0,1,2.28-1.1,2.07,2.07,0,0,1,2.14,2.26v3.06c0,.73.26,1,.55,1a1.19,1.19,0,0,0,.57-.18l.16.45Zm-1.15-4c-.35.17-1.12.5-1.48.66-.6.27-1,.57-1,1.16a1.16,1.16,0,0,0,1.14,1.22,2.05,2.05,0,0,0,1.3-.57C450.15,398.14,450.16,397.16,450.16,396.42Z"/><path class="c" d="M457.87,400.24v-.44c.92-.1,1-.21,1-1.29V395.9c0-1.11-.39-1.86-1.44-1.86a2.74,2.74,0,0,0-1.76.83v3.71c0,1.09.09,1.12,1,1.22v.44h-3.43v-.45c1-.11,1.14-.17,1.14-1.22v-3.26c0-1-.11-1.08-1-1.22v-.41a9.21,9.21,0,0,0,2.22-.64v1.25l1.08-.72a2.37,2.37,0,0,1,1.31-.48c1.27,0,2.06.94,2.06,2.48v3c0,1.08.1,1.12,1,1.22v.44Z"/><path class="c" d="M465.09,400.23a1.68,1.68,0,0,1-.69.21c-1,0-1.55-.62-1.55-1.89v-4.62h-1.09l-.06-.19.43-.46h.72V392c.3-.31.76-.73,1.06-1l.24,0c0,.66-.05,1.58-.05,2.35h1.8a.49.49,0,0,1-.09.65h-1.71V398c0,1.29.51,1.53.92,1.53a2.28,2.28,0,0,0,1-.26l.14.42Z"/><path class="c" d="M470.94,395.18c-.29-.92-.7-1.56-1.67-1.56a1,1,0,0,0-1,1c0,.68.46,1,1.35,1.41,1.36.65,2,1.13,2,2.18a2.35,2.35,0,0,1-2.58,2.2,4.12,4.12,0,0,1-1.89-.45c-.08-.46-.22-1.33-.29-1.85l.46-.08c.29,1,.84,1.84,1.95,1.84a1.05,1.05,0,0,0,1.11-1.08c0-.71-.42-1.08-1.26-1.49-1.11-.54-2-1.05-2-2.19a2.2,2.2,0,0,1,2.48-2,8,8,0,0,1,1.52.21c0,.38.16,1.37.24,1.76Z"/><path class="c" d="M286.58,324.67h20.1v2.1c-5.87.53-6.92,1.06-6.92,7.76v13c1.5-.15,3.24-1.35,5.42-3.46,4.22-4,9.26-9.11,12.72-13,2.26-2.56,2-3.54-1.2-4l-2.11-.23v-2.1h18.3v2.1c-5.65.68-7.61,1.06-12.65,6.25-2.26,2.19-8.13,7.91-12.95,12.65,5.72,6.78,14.08,16.42,18,20.56s4.82,4.75,9.49,5.27v2.11h-12c-5.79-6.55-11.89-13.85-18.75-21.84-1.73-2.1-3-2.25-4.21-2.18V363.9c0,6.55.67,7.08,6.92,7.6v2.11h-20.1V371.5c6.17-.52,6.78-1.05,6.78-7.6V334.53c0-6.78-.53-7.3-6.78-7.76Z"/><path class="c" d="M380.93,361.56a94.07,94.07,0,0,1-4.14,11.37A68,68,0,0,1,363,374.74c-18,0-27.18-12-27.18-25.15,0-15.36,11.67-26,28.53-26,6.48,0,11.75,1.36,14.24,1.73.3,3.39.82,7.91,1.43,11.68l-2.34.52c-1.5-5-3.31-8.13-7.15-9.71a20.51,20.51,0,0,0-7.91-1.43c-12.42,0-19,9.18-19,21.61,0,14.53,7.53,23.87,19.73,23.87,7.68,0,11.44-3.54,15.28-11.07Z"/><path class="c" d="M407.58,324.67c5.35,0,9.64,1,12.73,3.23s5,5.73,5,10.7c0,11-9.41,15.43-16.57,15.43a12.69,12.69,0,0,1-2-.15l-5.2-1.35v11.74c0,6.33.53,6.48,7.46,7.23v2.11H388.16V371.5c6.47-.67,6.77-1.13,6.77-7.38V334.23c0-6.7-.82-6.85-6.77-7.46v-2.1Zm-6.1,25.22a13.74,13.74,0,0,0,5.5,1c5,0,11.3-2.56,11.3-12.05,0-8.28-5.42-11.59-11.75-11.59-2.18,0-3.77.37-4.22.9-.6.53-.83,1.43-.83,3.46Z"/><path class="c" d="M453.59,373.61V371.5c4.9-.6,5.5-1.35,4.45-4.21s-2.49-6.71-4.07-11.45H437.7c-1.2,3.39-2.33,6.33-3.38,9.41-1.66,4.9-.61,5.5,5.57,6.25v2.11h-17.4V371.5c4.75-.6,5.95-1.13,8.59-7.9l15.59-39.54,2.4-.45c4.75,12.88,9.94,27.11,14.69,40.14,2.41,6.55,3.09,7.15,8.43,7.75v2.11Zm-7.53-40.13c-2.41,6.47-5,13.32-7.23,19.27h14.09Z"/></svg>